<svg aria-hidden="true" style="position: absolute; width: 0; height: 0; overflow: hidden;" version="1.1" xmlns="http://www.w3.org/2000/svg" xmlns:xlink="http://www.w3.org/1999/xlink">
<defs>
<symbol id="envelope-tablet" viewBox="0 0 45 32">
<path fill="#757575" style="fill: var(--color1, #757575)" d="M40.602 0h-36.4c-2.317 0-4.202 1.792-4.202 4v24c0 2.208 1.885 4 4.202 4h36.4c2.31 0 4.198-1.792 4.198-4v-24c0-2.208-1.885-4-4.202-4zM40.602 2.666c0.189 0 0.368 0.038 0.534 0.106l-18.736 15.466-18.736-15.466c0.158-0.066 0.342-0.104 0.534-0.106h36.401zM40.602 29.334h-36.4c-0.010 0-0.021 0-0.032 0-0.744 0-1.35-0.593-1.369-1.333l-0-0.002v-22.413l18.682 15.421c0.247 0.206 0.568 0.331 0.918 0.331s0.671-0.125 0.921-0.333l-0.002 0.002 18.682-15.421v22.413c0 0.736-0.627 1.334-1.402 1.334z"></path>
</symbol>
<symbol id="envelope" viewBox="0 0 43 32">
<path fill="#757575" style="fill: var(--color1, #757575)" d="M38.667 0h-34.667c-2.205 0-4 1.795-4 4v24c0 2.205 1.795 4 4 4h34.667c2.205 0 4-1.795 4-4v-24c0-2.205-1.795-4-4-4zM38.667 2.667c0.181 0 0.355 0.037 0.512 0.104l-17.845 15.467-17.845-15.467c0.151-0.065 0.327-0.104 0.512-0.104h34.667zM38.667 29.333h-34.667c-0.736 0-1.333-0.597-1.333-1.333v0-22.413l17.792 15.421c0.233 0.203 0.539 0.327 0.875 0.327s0.642-0.124 0.876-0.328l-0.002 0.001 17.792-15.421v22.413c0 0.736-0.597 1.333-1.333 1.333v0z"></path>
</symbol>
<symbol id="smartphone-tablet" viewBox="0 0 23 32">
<path fill="#757575" style="fill: var(--color1, #757575)" d="M19.429 0h-16c-1.89 0-3.429 1.346-3.429 3.001v25.998c0 1.657 1.538 3.001 3.429 3.001h16c1.89 0 3.429-1.346 3.429-3.001v-25.998c0-1.655-1.538-3.001-3.429-3.001zM3.429 2h16c0.631 0 1.143 0.448 1.143 1.001v20.999h-18.286v-21.001c0-0.549 0.512-0.999 1.143-0.999zM19.429 30h-16c-0.631 0-1.143-0.448-1.143-1.001v-2.999h18.286v3.001c0 0.549-0.512 0.999-1.143 0.999z"></path>
<path fill="#757575" style="fill: var(--color1, #757575)" d="M5.381 27.291c0.206 0.169 0.337 0.424 0.337 0.709s-0.13 0.54-0.335 0.707l-0.002 0.001c-0.217 0.183-0.5 0.294-0.809 0.294s-0.592-0.111-0.811-0.295l0.002 0.002c-0.206-0.169-0.337-0.424-0.337-0.709s0.13-0.54 0.335-0.707l0.002-0.001c0.217-0.183 0.5-0.294 0.809-0.294s0.592 0.111 0.811 0.295l-0.002-0.002z"></path>
</symbol>
<symbol id="smartphone" viewBox="0 0 20 32">
<path fill="#757575" style="fill: var(--color1, #757575)" d="M17 0h-14c-1.654 0-3 1.346-3 3v26c0 1.654 1.346 3 3 3h14c1.654 0 3-1.346 3-3v-26c0-1.654-1.346-3-3-3zM3 2h14c0.552 0 1 0.448 1 1v0 21h-16v-21c0-0.552 0.448-1 1-1v0zM17 30h-14c-0.552 0-1-0.448-1-1v0-3h16v3c0 0.552-0.448 1-1 1v0z"></path>
<path fill="#757575" style="fill: var(--color1, #757575)" d="M4.708 27.478c0.18 0.163 0.293 0.399 0.293 0.66s-0.113 0.497-0.292 0.659l-0.001 0.001c-0.186 0.17-0.435 0.275-0.708 0.275s-0.522-0.104-0.709-0.275l0.001 0.001c-0.18-0.163-0.293-0.399-0.293-0.66s0.113-0.497 0.292-0.659l0.001-0.001c0.186-0.17 0.435-0.275 0.708-0.275s0.522 0.104 0.709 0.275l-0.001-0.001z"></path>
</symbol>
</defs>
</svg>
